<svg width="263" height="88" viewBox="0 0 263 88" fill="none" xmlns="http://www.w3.org/2000/svg">
<path d="M110.809 24.5C111.793 24.5 112.641 24.8555 113.352 25.5664C114.062 26.25 114.418 27.0703 114.418 28.0273C114.418 28.957 114.062 29.7773 113.352 30.4883C112.641 31.1992 111.793 31.5547 110.809 31.5547C109.824 31.5547 108.977 31.1992 108.266 30.4883C107.582 29.7773 107.24 28.957 107.24 28.0273C107.24 27.0703 107.582 26.25 108.266 25.5664C108.977 24.8555 109.824 24.5 110.809 24.5ZM113.844 35.2871V56H108.635V39.7168H105.312V35.2871H113.844ZM125.615 35.2871V38.2402C126.244 37.3926 127.092 36.5996 128.158 35.8613C129.252 35.123 130.496 34.7539 131.891 34.7539C133.996 34.7539 135.76 35.4648 137.182 36.8867C138.604 38.3086 139.314 40.4414 139.314 43.2852V56H134.105L134.064 43.9824C134.064 42.5879 133.723 41.5488 133.039 40.8652C132.383 40.1816 131.467 39.8398 130.291 39.8398C129.361 39.8398 128.486 40.1406 127.666 40.7422C126.873 41.3438 126.189 42.0547 125.615 42.875V56H120.406V35.2871H125.615ZM153.506 34.7539C154.627 34.7539 155.762 35.0137 156.91 35.5332C158.059 36.0527 159.016 36.75 159.781 37.625V35.2871H164.99V56H159.781V52.5137C159.18 53.6348 158.305 54.6055 157.156 55.4258C156.008 56.2188 154.668 56.6152 153.137 56.6152C151.469 56.6152 149.924 56.1914 148.502 55.3438C147.107 54.4961 145.986 53.2656 145.139 51.6523C144.291 50.0391 143.867 48.084 143.867 45.7871C143.867 43.4902 144.291 41.5215 145.139 39.8809C146.014 38.2402 147.176 36.9824 148.625 36.1074C150.102 35.2051 151.729 34.7539 153.506 34.7539ZM154.572 39.8398C153.479 39.8398 152.535 40.127 151.742 40.7012C150.977 41.248 150.375 41.9727 149.938 42.875C149.5 43.7773 149.281 44.748 149.281 45.7871C149.281 47.3457 149.746 48.6719 150.676 49.7656C151.633 50.8594 152.891 51.4062 154.449 51.4062C155.379 51.4062 156.24 51.1602 157.033 50.668C157.854 50.1758 158.51 49.4922 159.002 48.6172C159.521 47.7148 159.781 46.6348 159.781 45.377V42.4238C159.043 41.6309 158.236 41.002 157.361 40.5371C156.514 40.0723 155.584 39.8398 154.572 39.8398ZM184.432 41.1113C183.557 40.6191 182.641 40.373 181.684 40.373C180.48 40.373 179.482 40.7695 178.689 41.5625C177.896 42.3281 177.199 43.2852 176.598 44.4336V56H171.389V35.2871H176.598V39.1836C177.309 37.9531 178.143 36.9277 179.1 36.1074C180.084 35.2871 181.191 34.877 182.422 34.877C183.16 34.877 183.83 35 184.432 35.2461V41.1113ZM191.732 35.2871L197.639 48.4941L203.381 35.2871H209.328L194.275 65.8438H188.369L194.604 54.4824L185.662 35.2871H191.732Z" fill="#0066FF"/>
<circle cx="77.5" cy="41.5" r="23.5" fill="#0066FF"/>
<path d="M86.5674 41.5781V46.7051H75.7803V57H70.0791V29.5195H88.8232V34.6465H75.7803V41.5781H86.5674Z" fill="white"/>
</svg>
